<?xml version="1.0" standalone="no"?>
<!DOCTYPE svg PUBLIC "-//W3C//DTD SVG 20010904//EN"
 "http://www.w3.org/TR/2001/REC-SVG-20010904/DTD/svg10.dtd">
<svg version="1.0" xmlns="http://www.w3.org/2000/svg"
 width="881.000000pt" height="881.000000pt" viewBox="0 0 881.000000 881.000000"
 preserveAspectRatio="xMidYMid meet">
<metadata>
Created by potrace 1.14, written by Peter Selinger 2001-2017
</metadata>
<g transform="translate(0.000000,881.000000) scale(0.100000,-0.100000)"
fill="#000000" stroke="none">
<path d="M4178 8795 c-1 -1 -52 -6 -113 -10 -60 -4 -118 -9 -130 -10 -11 -2
-72 -11 -135 -20 -123 -16 -163 -22 -196 -30 -12 -3 -38 -7 -59 -11 -21 -3
-115 -26 -209 -50 -94 -24 -180 -46 -191 -49 -57 -14 -351 -119 -430 -155
-302 -134 -467 -221 -690 -365 -81 -51 -292 -201 -305 -215 -3 -3 -36 -30 -75
-61 -294 -235 -578 -536 -806 -854 -64 -89 -199 -292 -199 -300 0 -2 -20 -38
-45 -80 -70 -117 -169 -319 -251 -510 -45 -105 -129 -350 -167 -490 -68 -243
-112 -480 -142 -765 -23 -211 -23 -663 0 -835 2 -16 7 -55 10 -85 45 -421 182
-917 360 -1305 145 -318 350 -655 539 -891 23 -28 50 -63 61 -77 124 -158 388
-428 550 -562 27 -22 53 -45 59 -50 6 -6 43 -35 81 -65 39 -30 72 -57 75 -60
16 -17 395 -270 405 -270 2 0 28 -14 57 -31 98 -58 272 -146 398 -201 142 -63
161 -70 176 -73 6 -2 27 -10 45 -19 34 -16 293 -104 329 -112 11 -2 28 -6 38
-9 68 -19 295 -74 323 -79 19 -3 70 -12 114 -20 77 -14 118 -20 215 -31 25 -3
59 -8 75 -10 178 -26 718 -27 915 -1 14 2 54 6 90 10 62 7 217 30 270 41 14 2
50 10 80 16 504 101 1052 326 1495 613 85 56 254 174 265 186 3 3 34 27 70 54
205 157 461 405 649 631 46 55 92 110 102 123 11 12 19 25 19 28 0 3 6 11 13
18 6 7 20 24 30 37 161 222 285 426 403 660 35 70 64 130 64 133 0 2 13 34 30
69 96 207 234 642 273 857 24 132 46 263 51 300 3 25 8 65 11 90 36 291 36
767 0 1010 -2 19 -7 59 -11 89 -3 30 -8 64 -10 75 -5 28 -22 122 -29 166 -9
56 -55 248 -76 325 -11 39 -22 77 -24 85 -9 41 -88 268 -128 370 -74 190 -178
405 -282 585 -40 70 -183 293 -215 335 -14 19 -53 71 -85 114 -33 43 -64 84
-70 90 -6 6 -17 20 -25 32 -94 134 -465 506 -632 634 -11 8 -45 36 -76 61 -32
25 -73 56 -92 69 -19 14 -40 29 -47 35 -42 36 -227 155 -376 242 -260 151
-707 343 -942 403 -16 4 -91 24 -165 43 -123 32 -191 47 -275 62 -28 5 -47 8
-105 20 -14 3 -52 7 -85 11 -33 3 -66 7 -72 9 -7 2 -45 7 -85 10 -40 4 -86 9
-103 11 -34 6 -581 14 -587 9z"/>
</g>
</svg>
